<?xml version="1.0" encoding="UTF-8" standalone="no"?>
<!DOCTYPE svg PUBLIC "-//W3C//DTD SVG 1.1//EN" "http://www.w3.org/Graphics/SVG/1.1/DTD/svg11.dtd">
<svg width="100%" height="100%" viewBox="0 0 2166 645" version="1.1" xmlns="http://www.w3.org/2000/svg" xmlns:xlink="http://www.w3.org/1999/xlink" xml:space="preserve" xmlns:serif="http://www.serif.com/" style="fill-rule:evenodd;clip-rule:evenodd;stroke-linejoin:round;stroke-miterlimit:2;">
    <g transform="matrix(1,0,0,1,-122.119453,-450.306443)">
        <g transform="matrix(2.250977,0,0,2.452897,-88,0.553061)">
            <path d="M398.961,323.5C392.924,383.977 313.989,398.185 322.307,348.463C325.448,329.686 352.408,287.297 375.414,302.644C378.319,304.581 395.977,295.226 398.961,323.5ZM343.11,349.419C337.841,383.92 382.066,332.969 377.005,322.646C376.706,322.037 374.945,312.401 362.698,321.766C346.433,334.202 343.154,349.309 343.11,349.419Z"/>
        </g>
        <g transform="matrix(2.250977,0,0,2.250977,48,23)">
            <path d="M972.142,344.377C972.218,345.052 972.295,345.728 972.371,346.403C949.026,359.368 946.169,375.778 839.516,400.575C646.886,445.362 414.522,455.96 355.489,459.349C299.331,462.572 259.345,460.4 252.502,460.573C246.46,460.725 245.184,464.339 236.379,461.875C205.425,453.214 -0.193,459.67 37.531,356.512C50.862,320.058 126.663,282.95 130.629,281.906C133.954,281.032 133.334,280.108 136.598,278.69C160.145,268.459 160.649,269.8 162.621,268.762C186.667,256.103 188.324,260.603 208.451,251.39C219.842,246.176 313.093,223.234 313.482,223.198C338.251,220.922 342.656,215.859 348.504,216.148C355.518,216.496 397.947,208.281 401.55,207.912C416.318,206.399 416.218,205.723 417.506,205.742C434.461,206 465.424,196.135 603.507,191.749C634.878,190.753 634.926,189.572 637.537,190.351C649.777,194.008 650.279,187.187 665.664,191.071C665.686,191.077 684.141,190.351 708.499,191.709C717.295,192.2 716.996,189.139 722.549,190.187C744.13,194.263 757.11,192.486 778.553,195C791.856,196.56 890.773,202.77 894.062,212.63C894.785,214.799 893.367,216.984 865.519,213.914C848.457,212.032 869.063,217.065 884.593,224.286C895.08,229.162 895.427,228.329 896.242,228.914C901.427,232.639 933.977,251.022 936.291,252.779C962.861,272.942 966.141,278.308 967.916,281.211C971.532,287.128 973.16,285.513 975.234,288.7C994.267,317.954 975.006,340.957 972.142,344.377Z" style="fill:rgb(1,1,1);"/>
        </g>
        <g transform="matrix(2.250977,0,0,2.250977,48,23)">
            <path d="M554.5,207.034C665.964,201.247 721.183,203.067 800.468,208.925C820.07,210.373 1020.532,285.748 947.225,341.107C915.061,365.397 875.586,370.702 868.439,376.405C867.739,376.964 854.038,377.399 844.468,382.441C842.426,383.517 823.307,386.926 821.456,387.256C811.394,389.05 811.89,391.215 801.519,390.998C799.564,390.957 799.765,392.048 777.59,395.962C761.433,398.813 761.762,399.696 745.438,402.192C737.81,403.359 732.639,405.309 731.568,405.713C731.264,405.828 619.815,421.514 616.501,421.566C605.899,421.732 600.952,420.344 589.318,425.159C585.547,426.72 585.286,425.017 538.458,429.163C438.288,438.029 434.298,440.689 309.493,444.183C294.839,444.593 295.09,443.914 280.479,443.714C257.548,443.399 241.845,444.792 238.498,445.089C234.895,445.409 235.204,442.957 193.484,440.799C185.939,440.408 139.634,438.013 100.407,424.771C91.109,421.633 -21.203,383.719 122.229,304.059C267.365,223.452 519.116,209.057 554.5,207.034Z" style="fill:rgb(192,102,102);"/>
        </g>
        <g transform="matrix(2.250977,0,0,2.250977,81,3)">
            <path d="M827.025,280.116C825.78,282.813 825.968,282.651 825.019,285.371L824.449,287.497L823.767,291.582C815.284,319.011 799.547,355.284 811.157,371.73C813.573,375.152 813.323,382.766 811.56,382.748C801.192,382.643 789.942,387.267 787.292,367.537C787.224,367.03 785.973,357.718 781.631,364.566C781.005,365.554 783.725,366.387 782.07,368.156C780.339,370.007 780.474,369.955 778.76,371.886C777.067,371.888 777.016,371.467 775.749,372.633C774.805,379.259 766.026,387.017 757.519,388.594C715.264,396.426 721.989,351.062 738.839,329.802C771.563,288.515 783.507,315.072 785.863,318.125C796.217,331.54 813.051,212.449 836.529,253.483C837.631,255.409 838.862,257.56 830.694,280.605C829.327,278.246 828.482,277.84 827.025,280.116ZM773.76,342.693C778.452,335.949 779.393,334.647 777.481,334.617C772.34,334.535 772.614,333.791 769.289,330.794C765.489,327.369 749.777,349.684 746.874,359.618C737.883,390.388 772.232,344.724 773.76,342.693Z"/>
        </g>
        <g transform="matrix(2.250977,0,0,2.250977,-106,95)">
            <path d="M264.486,302.064C267.116,302.506 274.616,302.392 281.177,306.929C284.663,309.34 295.976,327.777 269.552,320.281C257.932,316.984 241.966,340.11 239.794,347.582C234.275,366.57 250.895,359.137 268.925,340.953C311.323,298.192 303.671,282.039 322.807,241.646C327.955,230.78 343.645,240.806 343.844,245.451C344.651,264.305 327.614,291.534 327.134,293.399C326.623,295.385 323.628,307.024 318.733,317.616C309.94,336.644 307.889,372.117 305.313,373.003C295.105,376.515 295.439,377.173 294.513,377.168C280.92,377.091 284.917,370.942 285.482,357.504C285.584,355.098 254.062,381.519 237.531,378.301C198.365,370.675 226.141,309.437 264.486,302.064Z"/>
        </g>
        <g transform="matrix(2.250977,0,0,2.250977,-87,52)">
            <path d="M465.489,318.059C469.03,318.793 469.035,318.71 469.313,318.851C482.512,325.553 473.085,340.624 472.086,342.22C456.666,366.872 461.603,370.758 463.375,369.327C476.694,358.572 482.021,335.818 482.779,332.581C490.059,301.482 507.463,322.838 504.773,333.575C487.68,401.802 449.444,401.375 441.96,381.315C439.37,374.374 437.377,379.964 431.829,384.898C409.47,404.783 378.698,389.94 406.304,336.388C419.492,310.803 420.359,311.313 427.37,305.321C429.85,303.2 430.021,305.551 434.557,306.061C440.146,306.689 437.727,309.597 440.482,312.522C446.763,319.189 423.236,336.348 416.527,368.498C416.188,370.121 418.603,370.422 433.26,356.261C458.456,331.918 451.084,320.823 465.489,318.059Z"/>
        </g>
        <g transform="matrix(2.250977,0,0,2.250977,68,-2)">
            <path d="M645.016,357.429C652.536,319.047 680.358,304.881 689.526,306.359C700.617,308.147 701.31,307.703 708.582,316.41C709.539,317.556 713.356,315.372 716.309,316.845C740.034,328.679 702.014,357.963 717.007,375.869C731.959,393.725 700.569,392.463 695.721,382.391C690.828,372.224 688.754,385.62 677.497,386.457C643.14,389.013 644.391,372.638 645.016,357.429ZM678.252,335.253C660.351,356.077 659.347,375.133 673.189,366.07C685.831,357.794 703.405,311.035 678.252,335.253Z"/>
        </g>
        <g transform="matrix(2.250977,0,0,2.452897,-98,20.553061)">
            <path d="M398.961,323.5C392.924,383.977 313.989,398.185 322.307,348.463C325.448,329.686 352.408,287.297 375.414,302.644C378.319,304.581 395.977,295.226 398.961,323.5ZM343.11,349.419C337.841,383.92 382.066,332.969 377.005,322.646C376.706,322.037 374.945,312.401 362.698,321.766C346.433,334.202 343.154,349.309 343.11,349.419Z"/>
        </g>
        <g transform="matrix(2.250977,0,0,2.250977,-80,34)">
            <path d="M571.724,383.578C571.227,384.074 568.233,384.733 568.604,389.706C564.913,388.713 546.365,397.563 551.96,371.586C556.452,350.731 567.072,334.498 560.761,337.978C560.025,338.384 561.838,339.786 554.222,346.212C530.875,365.91 531.057,370.106 524.81,384.629C521.251,392.904 494.879,392.639 503.254,374.38C512.685,353.818 529.111,305.915 535.711,312.192C539.685,315.97 542.552,313.099 543.724,318.461C547.076,333.805 556.663,311.811 573.511,311.313C573.911,311.301 582.962,315.477 585.138,322.606C590.767,341.046 576.172,348.965 571.724,383.578Z" style="fill:rgb(1,1,1);"/>
        </g>
        <g transform="matrix(2.250977,0,0,2.250977,-110,44)">
            <path d="M668.851,259.414C673.424,273.217 661.672,280.316 645.88,315.669C628.975,353.513 618.148,365.413 617.521,378.502C617.264,383.861 586.249,392.31 598.52,364.509C598.671,364.166 649.868,256.706 656.404,254.2C658.806,253.279 658.684,254.883 666.549,256.253C667.97,256.5 667.563,256.931 668.851,259.414Z"/>
        </g>
        <g transform="matrix(2.250977,0,0,2.250977,98,255)">
            <path d="M778.76,371.886C777.545,373.308 777.493,373.443 775.749,372.633C777.016,371.467 777.067,371.888 778.76,371.886Z" style="fill:rgb(116,116,116);"/>
        </g>
        <g transform="matrix(2.250977,0,0,2.250977,98,255)">
            <path d="M101.556,212.588C102.823,212.761 103.352,212.18 103.306,213.491C103.301,213.648 101.556,216.452 101.556,212.588Z" style="fill:rgb(111,111,111);"/>
        </g>
        <g transform="matrix(2.250977,0,0,2.250977,98,255)">
            <path d="M972.142,344.377C972.659,345.401 973.137,345.394 972.371,346.403C972.295,345.728 972.218,345.052 972.142,344.377Z" style="fill:rgb(138,138,138);"/>
        </g>
        <g transform="matrix(2.250977,0,0,2.452897,621,-42.446939)">
            <path d="M398.961,323.5C392.924,383.977 313.989,398.185 322.307,348.463C325.448,329.686 352.408,287.297 375.414,302.644C378.319,304.581 395.977,295.226 398.961,323.5ZM343.11,349.419C337.841,383.92 382.066,332.969 377.005,322.646C376.706,322.037 374.945,312.401 362.698,321.766C346.433,334.202 343.154,349.309 343.11,349.419Z"/>
        </g>
    </g>
</svg>
